HIERARCHY
ROOT Hips
{
  OFFSET -281.651 97.1148 -141.593
  CHANNELS 6 Xposition Yposition Zposition Zrotation Xrotation Yrotation
  JOINT RightUpLeg
  {
    OFFSET -8.9458 -8.66707 0.101652
    CHANNELS 3 Zrotation Xrotation Yrotation
    JOINT RightLeg
    {
      OFFSET 0 -44.4227 1.3727
      CHANNELS 3 Zrotation Xrotation Yrotation
      JOINT RightFoot
      {
        OFFSET 0.253549 -42.0924 -1.46059
        CHANNELS 3 Zrotation Xrotation Yrotation
        JOINT RightToes
        {
          OFFSET 0.04 -4.41509 8.4991
          CHANNELS 3 Zrotation Xrotation Yrotation
          End Site
          {
            OFFSET -0.08 -0.137448 9.77979
          }
        }
      }
    }
  }
  JOINT Spine
  {
    OFFSET 0 11.8905 0
    CHANNELS 3 Zrotation Xrotation Yrotation
    JOINT Spine1
    {
      OFFSET 0 25.6574 0.127663
      CHANNELS 3 Zrotation Xrotation Yrotation
      JOINT HEad
      {
        OFFSET 0 8.73416 0.011341
        CHANNELS 3 Zrotation Xrotation Yrotation
        End Site
        {
          OFFSET -0.29 12.7742 2.51395
        }
      }
      JOINT LeftShoulder1
      {
        OFFSET 8.99 -0.362252 -0.22
        CHANNELS 3 Zrotation Xrotation Yrotation
        JOINT LeftArm
        {
          OFFSET 10.2827 -0.00338 0.322123
          CHANNELS 3 Zrotation Xrotation Yrotation
          JOINT LeftForeArm
          {
            OFFSET 32.7669 0.099144 -1.42434
            CHANNELS 3 Zrotation Xrotation Yrotation
            JOINT LeftHand
            {
              OFFSET 27.5643 0.085362 1.02216
              CHANNELS 3 Zrotation Xrotation Yrotation
              End Site
              {
                OFFSET 16.7443 -0.6 1.50291
              }
            }
          }
        }
      }
      JOINT RightShoulder
      {
        OFFSET -8.99 -0.362252 -0.22
        CHANNELS 3 Zrotation Xrotation Yrotation
        JOINT RightArm
        {
          OFFSET -10.2827 -0.00338 0.322123
          CHANNELS 3 Zrotation Xrotation Yrotation
          JOINT RightForeArm
          {
            OFFSET -32.8971 0.099144 -1.42434
            CHANNELS 3 Zrotation Xrotation Yrotation
            JOINT RightHand
            {
              OFFSET -27.4921 0.085362 1.02216
              CHANNELS 3 Zrotation Xrotation Yrotation
              End Site
              {
                OFFSET -16.6312 -0.6 1.50291
              }
            }
          }
        }
      }
    }
  }
  JOINT LeftUpLeg
  {
    OFFSET 8.9458 -8.66707 0.101652
    CHANNELS 3 Zrotation Xrotation Yrotation
    JOINT LeftLeg
    {
      OFFSET 0 -44.4227 1.3727
      CHANNELS 3 Zrotation Xrotation Yrotation
      JOINT LeftFoot
      {
        OFFSET -0.253549 -42.0924 -1.46059
        CHANNELS 3 Zrotation Xrotation Yrotation
        JOINT LeftToes
        {
          OFFSET -0.04 -4.41509 8.4991
          CHANNELS 3 Zrotation Xrotation Yrotation
          End Site
          {
            OFFSET 0.08 -0.047448 9.77979
          }
        }
      }
    }
  }
}
MOTION
Frames:	8
Frame Time:	0.0166667
-249.311 94.0525 -144.862 -3.42708 15.8128 -177.936 -10.4091 -24.934 -14.9936 -41.0416 66.337 38.5351 -8.15051 1.58655 -0.694474 0.0462048 0.000533403 0.662642 15.8415 19.4269 -2.82237 0.0045522 0.0485 0.0881399 -13.6331 35.488 22.6347 3.52843e-015 -7.95139e-016 -3.97569e-016 157.265 -66.2769 152.82 -84.0159 55.3707 -45.093 7.29242 19.4225 -0.362808 27.4896 7.88023 13.9946 49.4268 -32.8047 63.2372 43.4828 53.6404 78.0106 -6.27497 17.0868 5.40427 11.0773 -13.6096 7.32265 15.2643 44.821 -9.27541 -16.6247 -2.82324 -1.03592 -1.18447e-009 1.5602e-007 -4.87132e-009 
-247.36 93.5621 -143.54 -4.02143 14.1364 -176.53 -14.9493 -25.5189 -16.485 -55.2735 67.157 55.561 3.65662 1.92174 0.568534 0.0462048 0.000533403 0.662642 13.2089 20.2465 -0.0307137 0.0276097 -0.01769 -0.0131807 -13.3589 32.6697 21.1316 1.39149e-015 -1.59028e-015 -7.95139e-016 148.644 -68.5384 149.426 -85.781 55.2719 -46.7237 4.47694 22.6312 -8.30844 29.4702 5.14997 12.7788 48.3117 -31.5904 62.5209 47.1467 53.5647 77.0671 -7.6547 20.3614 4.24388 11.7872 -15.66 5.8364 10.2083 43.9646 -2.01806 -9.48681 -3.55152 -0.697846 -1.18446e-009 1.5602e-007 -4.87132e-009 
-245.186 93.0461 -142.167 -4.63171 12.6077 -175.093 -18.0348 -24.8914 -16.8994 -63.5729 65.3735 67.4826 5.84433 2.90165 0.0933798 0.0462048 0.000533403 0.662642 10.9409 20.6804 2.28719 0.0255895 -0.02333 -0.0186206 -15.1133 30.0999 21.1778 2.18663e-015 0 1.59028e-015 147.48 -68.5012 151.144 -86.7501 55.1959 -48.3956 6.25724 16.9746 12.2826 31.1444 2.87987 11.7662 47.7136 -30.7367 61.9836 48.9714 53.72 77.009 -8.08342 21.5632 4.00816 13.4676 -17.9129 5.74597 6.32391 42.9251 2.39783 -2.74552 -3.82878 -0.226837 -1.18446e-009 1.5602e-007 -4.87132e-009 
-242.811 92.5313 -140.75 -5.18225 11.1687 -173.692 -20.6927 -23.0518 -15.889 -63.7119 62.3843 72.2838 13.3651 3.12884 0.0904796 0.0462048 0.000533403 0.662642 9.05596 20.78 4.21671 0.0217817 -0.0228069 -0.0186206 -18.472 27.6698 22.6123 1.19271e-015 -1.59028e-015 -1.59028e-015 147.686 -68.8734 153.233 -87.2821 55.4159 -50.1097 5.10464 19.0598 -2.5933 32.3691 1.08025 10.9218 47.7386 -30.0628 61.699 49.7417 54.0291 77.3402 -8.5335 22.495 3.52469 15.691 -20.2603 7.07435 3.13813 41.8406 4.6151 4.01665 -3.80257 0.234568 -1.18447e-009 1.5602e-007 -4.87132e-009 
-240.386 92.0693 -139.31 -5.61456 9.77106 -172.381 -21.9384 -20.1513 -13.8834 -55.4655 58.5681 70.6743 13.1899 3.22235 -0.105065 0.0462048 0.000533403 0.662642 7.52718 20.5906 5.83117 0.0182433 -0.020015 -0.0186206 -22.8265 25.0285 25.2769 8.82781e-032 -3.18055e-015 1.59028e-015 148.656 -69.4912 155.446 -87.044 55.5979 -51.666 5.0828 19.8 7.59603 33.1396 -0.336279 10.1716 48.3937 -29.4161 61.7555 49.9446 54.4036 77.7582 -8.46174 22.6334 3.40677 17.5121 -22.2859 8.49046 0.339872 40.3764 6.23542 10.8204 -3.57075 0.675511 -1.18446e-009 1.5602e-007 -4.87132e-009 
-237.857 91.5393 -137.884 -5.84632 8.39243 -171.213 -23.0602 -16.3962 -10.7864 -43.0488 54.893 62.6964 17.6761 2.56942 -0.203566 0.0462048 0.000533403 0.662642 6.3703 20.1576 7.19829 0.0147818 -0.01658 -0.0186206 -26.6649 22.6721 27.4528 -7.95139e-016 0 -0 149.594 -70.1202 157.36 -86.6639 55.9163 -53.1463 4.7272 20.5045 -1.30159 33.3292 -1.40702 9.44 49.8171 -28.7384 62.2307 49.9773 54.7834 78.0021 -8.48522 22.6169 3.02705 19.088 -24.2167 9.91173 -1.95155 38.8587 7.24536 17.4101 -3.29716 1.07563 -1.18446e-009 1.5602e-007 -4.87132e-009 
-235.359 91.1006 -136.497 -5.88532 7.05799 -170.201 -23.237 -12.1491 -7.07114 -30.7677 50.7892 51.985 15.6555 2.06873 -0.114795 0.0462048 0.000533403 0.662642 5.53506 19.565 8.35755 0.014783 -0.0131451 -0.0186206 -29.9799 20.5358 29.2489 -2.38542e-015 -1.59028e-015 -0 150.558 -70.6316 159.196 -86.2568 56.1891 -54.1455 5.07865 20.3957 4.79756 33.0939 -2.10512 8.68843 51.7992 -28.0166 63.1368 50.0168 55.1399 77.962 -8.20405 22.4468 2.67616 20.311 -25.85 11.2406 -3.63145 36.9717 7.63881 23.6916 -2.90922 1.40688 -1.18446e-009 1.5602e-007 -4.87132e-009 
-232.879 90.6924 -135.178 -5.75095 5.80875 -169.336 -23.1987 -7.51834 -2.68819 -19.9731 45.5122 40.0378 15.7996 1.17177 -0.0767383 0.0462048 0.000533403 0.662642 4.99345 18.8976 9.31865 0.0147841 -0.00971025 -0.0186206 -32.7976 18.5566 30.7446 -7.95139e-016 -3.18055e-015 3.18055e-015 151.176 -70.9773 160.768 -86.129 56.5167 -54.815 5.12693 20.3422 -0.802257 32.408 -2.47236 7.78564 54.3206 -27.0953 64.4494 50.1414 55.4848 77.6103 -8.03941 22.1663 2.20089 21.2799 -27.2401 12.4334 -4.66048 34.9084 7.3823 29.4499 -2.49704 1.66275 -1.18447e-009 1.5602e-007 -4.87132e-009 
